#N canvas 885 0 1031 971 10;
#X obj 49 0 receive fromGUI;
#X floatatom 49 158 5 0 0 0 - - - 0;
#X obj 49 32 list trim;
#X floatatom 86 158 5 0 0 0 - - - 0;
#X floatatom 124 158 5 0 0 0 - - - 0;
#X floatatom 162 158 5 0 0 0 - - - 0;
#N canvas 0 0 476 505 distnace 0;
#X floatatom 287 130 5 0 0 0 - - - 0;
#X obj 300 50 unpack;
#X obj 287 81 * 127;
#X obj 287 106 i;
#X floatatom 338 129 5 0 0 0 - - - 0;
#X obj 338 80 * 127;
#X obj 338 105 i;
#X floatatom 248 130 5 0 0 0 - - - 0;
#X obj 248 81 - 127;
#X obj 248 106 * -1;
#X floatatom 380 128 5 0 0 0 - - - 0;
#X obj 380 104 * -1;
#X obj 380 79 - 127;
#X obj 206 189 pow 2;
#X obj 221 211 pow 2;
#X obj 206 234 +;
#X obj 206 255 sqrt;
#X floatatom 207 365 5 0 0 0 - - - 0;
#X obj 270 182 pow 2;
#X obj 285 206 pow 2;
#X obj 270 229 +;
#X obj 270 254 sqrt;
#X obj 340 180 pow 2;
#X obj 355 203 pow 2;
#X obj 340 224 +;
#X obj 340 249 sqrt;
#X obj 409 193 pow 2;
#X obj 424 213 pow 2;
#X obj 409 234 +;
#X obj 409 255 sqrt;
#X obj 206 300 - 127;
#X obj 206 322 * -1;
#X obj 270 298 - 127;
#X obj 270 320 * -1;
#X obj 340 293 - 127;
#X obj 340 315 * -1;
#X obj 409 298 - 127;
#X obj 409 320 * -1;
#X obj 207 344 i;
#X floatatom 270 364 5 0 0 0 - - - 0;
#X obj 270 343 i;
#X floatatom 338 363 5 0 0 0 - - - 0;
#X obj 340 338 i;
#X floatatom 409 364 5 0 0 0 - - - 0;
#X obj 409 343 i;
#X obj 206 277 moses 128;
#X obj 270 277 moses 128;
#X obj 340 271 moses 128;
#X obj 409 277 moses 128;
#X obj 299 21 inlet;
#X obj 207 387 outlet;
#X obj 270 389 outlet;
#X obj 337 390 outlet;
#X obj 400 392 outlet;
#X floatatom 104 102 5 0 0 0 - - - 0;
#X floatatom 138 102 5 0 0 0 - - - 0;
#X floatatom 172 102 5 0 0 0 - - - 0;
#X floatatom 206 102 5 0 0 0 - - - 0;
#X connect 0 0 13 0;
#X connect 0 0 18 0;
#X connect 1 0 2 0;
#X connect 1 1 5 0;
#X connect 2 0 3 0;
#X connect 3 0 0 0;
#X connect 3 0 8 0;
#X connect 4 0 14 0;
#X connect 4 0 22 0;
#X connect 5 0 6 0;
#X connect 6 0 4 0;
#X connect 6 0 12 0;
#X connect 7 0 23 0;
#X connect 7 0 26 0;
#X connect 8 0 9 0;
#X connect 9 0 7 0;
#X connect 10 0 19 0;
#X connect 10 0 27 0;
#X connect 11 0 10 0;
#X connect 12 0 11 0;
#X connect 13 0 15 0;
#X connect 14 0 15 1;
#X connect 15 0 16 0;
#X connect 16 0 45 0;
#X connect 17 0 50 0;
#X connect 18 0 20 0;
#X connect 19 0 20 1;
#X connect 20 0 21 0;
#X connect 21 0 46 0;
#X connect 22 0 24 0;
#X connect 23 0 24 1;
#X connect 24 0 25 0;
#X connect 25 0 47 0;
#X connect 26 0 28 0;
#X connect 27 0 28 1;
#X connect 28 0 29 0;
#X connect 29 0 48 0;
#X connect 30 0 31 0;
#X connect 31 0 38 0;
#X connect 32 0 33 0;
#X connect 33 0 40 0;
#X connect 34 0 35 0;
#X connect 35 0 42 0;
#X connect 36 0 37 0;
#X connect 37 0 44 0;
#X connect 38 0 17 0;
#X connect 38 0 54 0;
#X connect 39 0 51 0;
#X connect 39 0 55 0;
#X connect 40 0 39 0;
#X connect 41 0 52 0;
#X connect 41 0 56 0;
#X connect 42 0 41 0;
#X connect 43 0 53 0;
#X connect 43 0 57 0;
#X connect 44 0 43 0;
#X connect 45 0 30 0;
#X connect 46 0 32 0;
#X connect 47 0 34 0;
#X connect 48 0 36 0;
#X connect 49 0 1 0;
#X coords 0 -1 1 1 140 20 2 100 100;
#X restore 111 251 pd distnace;
#N canvas 0 0 476 505 distnace 0;
#X floatatom 287 130 5 0 0 0 - - - 0;
#X obj 300 50 unpack;
#X obj 287 81 * 127;
#X obj 287 106 i;
#X floatatom 338 129 5 0 0 0 - - - 0;
#X obj 338 80 * 127;
#X obj 338 105 i;
#X floatatom 248 130 5 0 0 0 - - - 0;
#X obj 248 81 - 127;
#X obj 248 106 * -1;
#X floatatom 380 128 5 0 0 0 - - - 0;
#X obj 380 104 * -1;
#X obj 380 79 - 127;
#X obj 206 189 pow 2;
#X obj 221 211 pow 2;
#X obj 206 234 +;
#X obj 206 255 sqrt;
#X floatatom 207 365 5 0 0 0 - - - 0;
#X obj 270 182 pow 2;
#X obj 285 206 pow 2;
#X obj 270 229 +;
#X obj 270 254 sqrt;
#X obj 340 180 pow 2;
#X obj 355 203 pow 2;
#X obj 340 224 +;
#X obj 340 249 sqrt;
#X obj 409 193 pow 2;
#X obj 424 213 pow 2;
#X obj 409 234 +;
#X obj 409 255 sqrt;
#X obj 206 300 - 127;
#X obj 206 322 * -1;
#X obj 270 298 - 127;
#X obj 270 320 * -1;
#X obj 340 293 - 127;
#X obj 340 315 * -1;
#X obj 409 298 - 127;
#X obj 409 320 * -1;
#X obj 207 344 i;
#X floatatom 270 364 5 0 0 0 - - - 0;
#X obj 270 343 i;
#X floatatom 338 363 5 0 0 0 - - - 0;
#X obj 340 338 i;
#X floatatom 409 364 5 0 0 0 - - - 0;
#X obj 409 343 i;
#X obj 206 277 moses 128;
#X obj 270 277 moses 128;
#X obj 340 271 moses 128;
#X obj 409 277 moses 128;
#X obj 299 21 inlet;
#X obj 207 387 outlet;
#X obj 270 389 outlet;
#X obj 337 390 outlet;
#X obj 400 392 outlet;
#X floatatom 104 102 5 0 0 0 - - - 0;
#X floatatom 138 102 5 0 0 0 - - - 0;
#X floatatom 172 102 5 0 0 0 - - - 0;
#X floatatom 206 102 5 0 0 0 - - - 0;
#X connect 0 0 13 0;
#X connect 0 0 18 0;
#X connect 1 0 2 0;
#X connect 1 1 5 0;
#X connect 2 0 3 0;
#X connect 3 0 0 0;
#X connect 3 0 8 0;
#X connect 4 0 14 0;
#X connect 4 0 22 0;
#X connect 5 0 6 0;
#X connect 6 0 4 0;
#X connect 6 0 12 0;
#X connect 7 0 23 0;
#X connect 7 0 26 0;
#X connect 8 0 9 0;
#X connect 9 0 7 0;
#X connect 10 0 19 0;
#X connect 10 0 27 0;
#X connect 11 0 10 0;
#X connect 12 0 11 0;
#X connect 13 0 15 0;
#X connect 14 0 15 1;
#X connect 15 0 16 0;
#X connect 16 0 45 0;
#X connect 17 0 50 0;
#X connect 18 0 20 0;
#X connect 19 0 20 1;
#X connect 20 0 21 0;
#X connect 21 0 46 0;
#X connect 22 0 24 0;
#X connect 23 0 24 1;
#X connect 24 0 25 0;
#X connect 25 0 47 0;
#X connect 26 0 28 0;
#X connect 27 0 28 1;
#X connect 28 0 29 0;
#X connect 29 0 48 0;
#X connect 30 0 31 0;
#X connect 31 0 38 0;
#X connect 32 0 33 0;
#X connect 33 0 40 0;
#X connect 34 0 35 0;
#X connect 35 0 42 0;
#X connect 36 0 37 0;
#X connect 37 0 44 0;
#X connect 38 0 17 0;
#X connect 38 0 54 0;
#X connect 39 0 51 0;
#X connect 39 0 55 0;
#X connect 40 0 39 0;
#X connect 41 0 52 0;
#X connect 41 0 56 0;
#X connect 42 0 41 0;
#X connect 43 0 53 0;
#X connect 43 0 57 0;
#X connect 44 0 43 0;
#X connect 45 0 30 0;
#X connect 46 0 32 0;
#X connect 47 0 34 0;
#X connect 48 0 36 0;
#X connect 49 0 1 0;
#X coords 0 -1 1 1 140 20 2 100 100;
#X restore 463 250 pd distnace;
#N canvas 0 0 476 505 distnace 0;
#X floatatom 287 130 5 0 0 0 - - - 0;
#X obj 300 50 unpack;
#X obj 287 81 * 127;
#X obj 287 106 i;
#X floatatom 338 129 5 0 0 0 - - - 0;
#X obj 338 80 * 127;
#X obj 338 105 i;
#X floatatom 248 130 5 0 0 0 - - - 0;
#X obj 248 81 - 127;
#X obj 248 106 * -1;
#X floatatom 380 128 5 0 0 0 - - - 0;
#X obj 380 104 * -1;
#X obj 380 79 - 127;
#X obj 206 189 pow 2;
#X obj 221 211 pow 2;
#X obj 206 234 +;
#X obj 206 255 sqrt;
#X floatatom 207 365 5 0 0 0 - - - 0;
#X obj 270 182 pow 2;
#X obj 285 206 pow 2;
#X obj 270 229 +;
#X obj 270 254 sqrt;
#X obj 340 180 pow 2;
#X obj 355 203 pow 2;
#X obj 340 224 +;
#X obj 340 249 sqrt;
#X obj 409 193 pow 2;
#X obj 424 213 pow 2;
#X obj 409 234 +;
#X obj 409 255 sqrt;
#X obj 206 300 - 127;
#X obj 206 322 * -1;
#X obj 270 298 - 127;
#X obj 270 320 * -1;
#X obj 340 293 - 127;
#X obj 340 315 * -1;
#X obj 409 298 - 127;
#X obj 409 320 * -1;
#X obj 207 344 i;
#X floatatom 270 364 5 0 0 0 - - - 0;
#X obj 270 343 i;
#X floatatom 338 363 5 0 0 0 - - - 0;
#X obj 340 338 i;
#X floatatom 409 364 5 0 0 0 - - - 0;
#X obj 409 343 i;
#X obj 206 277 moses 128;
#X obj 270 277 moses 128;
#X obj 340 271 moses 128;
#X obj 409 277 moses 128;
#X obj 299 21 inlet;
#X obj 207 387 outlet;
#X obj 270 389 outlet;
#X obj 337 390 outlet;
#X obj 400 392 outlet;
#X floatatom 104 102 5 0 0 0 - - - 0;
#X floatatom 138 102 5 0 0 0 - - - 0;
#X floatatom 172 102 5 0 0 0 - - - 0;
#X floatatom 206 102 5 0 0 0 - - - 0;
#X connect 0 0 13 0;
#X connect 0 0 18 0;
#X connect 1 0 2 0;
#X connect 1 1 5 0;
#X connect 2 0 3 0;
#X connect 3 0 0 0;
#X connect 3 0 8 0;
#X connect 4 0 14 0;
#X connect 4 0 22 0;
#X connect 5 0 6 0;
#X connect 6 0 4 0;
#X connect 6 0 12 0;
#X connect 7 0 23 0;
#X connect 7 0 26 0;
#X connect 8 0 9 0;
#X connect 9 0 7 0;
#X connect 10 0 19 0;
#X connect 10 0 27 0;
#X connect 11 0 10 0;
#X connect 12 0 11 0;
#X connect 13 0 15 0;
#X connect 14 0 15 1;
#X connect 15 0 16 0;
#X connect 16 0 45 0;
#X connect 17 0 50 0;
#X connect 18 0 20 0;
#X connect 19 0 20 1;
#X connect 20 0 21 0;
#X connect 21 0 46 0;
#X connect 22 0 24 0;
#X connect 23 0 24 1;
#X connect 24 0 25 0;
#X connect 25 0 47 0;
#X connect 26 0 28 0;
#X connect 27 0 28 1;
#X connect 28 0 29 0;
#X connect 29 0 48 0;
#X connect 30 0 31 0;
#X connect 31 0 38 0;
#X connect 32 0 33 0;
#X connect 33 0 40 0;
#X connect 34 0 35 0;
#X connect 35 0 42 0;
#X connect 36 0 37 0;
#X connect 37 0 44 0;
#X connect 38 0 17 0;
#X connect 38 0 54 0;
#X connect 39 0 51 0;
#X connect 39 0 55 0;
#X connect 40 0 39 0;
#X connect 41 0 52 0;
#X connect 41 0 56 0;
#X connect 42 0 41 0;
#X connect 43 0 53 0;
#X connect 43 0 57 0;
#X connect 44 0 43 0;
#X connect 45 0 30 0;
#X connect 46 0 32 0;
#X connect 47 0 34 0;
#X connect 48 0 36 0;
#X connect 49 0 1 0;
#X coords 0 -1 1 1 140 20 2 100 100;
#X restore 417 152 pd distnace;
#N canvas 0 0 476 505 distnace 0;
#X floatatom 287 130 5 0 0 0 - - - 0;
#X obj 300 50 unpack;
#X obj 287 81 * 127;
#X obj 287 106 i;
#X floatatom 338 129 5 0 0 0 - - - 0;
#X obj 338 80 * 127;
#X obj 338 105 i;
#X floatatom 248 130 5 0 0 0 - - - 0;
#X obj 248 81 - 127;
#X obj 248 106 * -1;
#X floatatom 380 128 5 0 0 0 - - - 0;
#X obj 380 104 * -1;
#X obj 380 79 - 127;
#X obj 206 189 pow 2;
#X obj 221 211 pow 2;
#X obj 206 234 +;
#X obj 206 255 sqrt;
#X floatatom 207 365 5 0 0 0 - - - 0;
#X obj 270 182 pow 2;
#X obj 285 206 pow 2;
#X obj 270 229 +;
#X obj 270 254 sqrt;
#X obj 340 180 pow 2;
#X obj 355 203 pow 2;
#X obj 340 224 +;
#X obj 340 249 sqrt;
#X obj 409 193 pow 2;
#X obj 424 213 pow 2;
#X obj 409 234 +;
#X obj 409 255 sqrt;
#X obj 206 300 - 127;
#X obj 206 322 * -1;
#X obj 270 298 - 127;
#X obj 270 320 * -1;
#X obj 340 293 - 127;
#X obj 340 315 * -1;
#X obj 409 298 - 127;
#X obj 409 320 * -1;
#X obj 207 344 i;
#X floatatom 270 364 5 0 0 0 - - - 0;
#X obj 270 343 i;
#X floatatom 338 363 5 0 0 0 - - - 0;
#X obj 340 338 i;
#X floatatom 409 364 5 0 0 0 - - - 0;
#X obj 409 343 i;
#X obj 206 277 moses 128;
#X obj 270 277 moses 128;
#X obj 340 271 moses 128;
#X obj 409 277 moses 128;
#X obj 299 21 inlet;
#X obj 207 387 outlet;
#X obj 270 389 outlet;
#X obj 337 390 outlet;
#X obj 400 392 outlet;
#X floatatom 104 102 5 0 0 0 - - - 0;
#X floatatom 138 102 5 0 0 0 - - - 0;
#X floatatom 172 102 5 0 0 0 - - - 0;
#X floatatom 206 102 5 0 0 0 - - - 0;
#X connect 0 0 13 0;
#X connect 0 0 18 0;
#X connect 1 0 2 0;
#X connect 1 1 5 0;
#X connect 2 0 3 0;
#X connect 3 0 0 0;
#X connect 3 0 8 0;
#X connect 4 0 14 0;
#X connect 4 0 22 0;
#X connect 5 0 6 0;
#X connect 6 0 4 0;
#X connect 6 0 12 0;
#X connect 7 0 23 0;
#X connect 7 0 26 0;
#X connect 8 0 9 0;
#X connect 9 0 7 0;
#X connect 10 0 19 0;
#X connect 10 0 27 0;
#X connect 11 0 10 0;
#X connect 12 0 11 0;
#X connect 13 0 15 0;
#X connect 14 0 15 1;
#X connect 15 0 16 0;
#X connect 16 0 45 0;
#X connect 17 0 50 0;
#X connect 18 0 20 0;
#X connect 19 0 20 1;
#X connect 20 0 21 0;
#X connect 21 0 46 0;
#X connect 22 0 24 0;
#X connect 23 0 24 1;
#X connect 24 0 25 0;
#X connect 25 0 47 0;
#X connect 26 0 28 0;
#X connect 27 0 28 1;
#X connect 28 0 29 0;
#X connect 29 0 48 0;
#X connect 30 0 31 0;
#X connect 31 0 38 0;
#X connect 32 0 33 0;
#X connect 33 0 40 0;
#X connect 34 0 35 0;
#X connect 35 0 42 0;
#X connect 36 0 37 0;
#X connect 37 0 44 0;
#X connect 38 0 17 0;
#X connect 38 0 54 0;
#X connect 39 0 51 0;
#X connect 39 0 55 0;
#X connect 40 0 39 0;
#X connect 41 0 52 0;
#X connect 41 0 56 0;
#X connect 42 0 41 0;
#X connect 43 0 53 0;
#X connect 43 0 57 0;
#X connect 44 0 43 0;
#X connect 45 0 30 0;
#X connect 46 0 32 0;
#X connect 47 0 34 0;
#X connect 48 0 36 0;
#X connect 49 0 1 0;
#X coords 0 -1 1 1 140 20 2 100 100;
#X restore 769 151 pd distnace;
#X obj 49 56 route /mySlider1 /mySlider2 /mySlider3 /mySlider4 /myXYSlider1
/myXYSlider2 /myXYSlider3 /myXYSlider4 /myButton;
#X msg 23 283 list /ctl0 \$1;
#X msg 107 283 list /ctl1 \$1;
#X msg 193 283 list /ctl2 \$1;
#X msg 277 283 list /ctl3 \$1;
#X msg 375 282 list /ctl4 \$1;
#X msg 459 282 list /ctl5 \$1;
#X msg 545 282 list /ctl6 \$1;
#X msg 629 282 list /ctl7 \$1;
#X msg 329 184 list /ctl8 \$1;
#X msg 413 184 list /ctl9 \$1;
#X msg 499 184 list /ctl10 \$1;
#X msg 583 184 list /ct11 \$1;
#X msg 681 183 list /ctl12 \$1;
#X msg 765 183 list /ctl13 \$1;
#X msg 851 183 list /ctl14 \$1;
#X msg 935 183 list /ctl15 \$1;
#X obj 460 443 send toNetwork;
#X msg 34 408 list /ct20 \$1;
#X msg 118 408 list /ctl21 \$1;
#X msg 202 375 list /ctl22 \$1;
#X msg 288 408 list /ctl23 \$1;
#X connect 0 0 2 0;
#X connect 1 0 28 0;
#X connect 2 0 10 0;
#X connect 3 0 29 0;
#X connect 4 0 30 0;
#X connect 5 0 31 0;
#X connect 6 0 11 0;
#X connect 6 1 12 0;
#X connect 6 2 13 0;
#X connect 6 3 14 0;
#X connect 7 0 15 0;
#X connect 7 1 16 0;
#X connect 7 2 17 0;
#X connect 7 3 18 0;
#X connect 8 0 19 0;
#X connect 8 1 20 0;
#X connect 8 2 21 0;
#X connect 8 3 22 0;
#X connect 9 0 23 0;
#X connect 9 1 24 0;
#X connect 9 2 25 0;
#X connect 9 3 26 0;
#X connect 10 0 1 0;
#X connect 10 1 3 0;
#X connect 10 2 4 0;
#X connect 10 3 5 0;
#X connect 10 4 6 0;
#X connect 10 5 7 0;
#X connect 10 6 8 0;
#X connect 10 7 9 0;
#X connect 11 0 27 0;
#X connect 12 0 27 0;
#X connect 13 0 27 0;
#X connect 14 0 27 0;
#X connect 15 0 27 0;
#X connect 16 0 27 0;
#X connect 17 0 27 0;
#X connect 18 0 27 0;
#X connect 19 0 27 0;
#X connect 20 0 27 0;
#X connect 21 0 27 0;
#X connect 22 0 27 0;
#X connect 23 0 27 0;
#X connect 24 0 27 0;
#X connect 25 0 27 0;
#X connect 26 0 27 0;
#X connect 28 0 27 0;
#X connect 29 0 27 0;
#X connect 30 0 27 0;
#X connect 31 0 27 0;
