#N canvas 0 0 1920 988 12;
#X obj 49 502 *~;
#X obj 167 502 *~;
#X obj 284 501 *~;
#X obj 410 501 *~;
#X obj 67 462 line;
#X obj 185 462 line;
#X obj 302 461 line;
#X obj 428 462 line;
#X obj 118 482 adc~ 1;
#X msg 102 402 1;
#X msg 230 402 1;
#X msg 355 402 1;
#X msg 480 402 1;
#X obj 50 382 sel 0;
#X obj 234 382 sel 1;
#X obj 345 381 sel 2;
#X obj 465 381 sel 3;
#X obj 185 422 pack;
#X msg 185 442 \$1 \$2;
#X obj 67 422 pack;
#X obj 302 421 pack;
#X obj 428 422 pack;
#X msg 67 442 \$1 \$2;
#X msg 302 441 \$1 \$2;
#X msg 428 442 \$1 \$2;
#X floatatom 255 942 5 0 0 0 - - - 0;
#X floatatom 67 482 5 0 0 0 - - - 0;
#X floatatom 185 482 5 0 0 0 - - - 0;
#X floatatom 302 481 5 0 0 0 - - - 0;
#X floatatom 428 482 5 0 0 0 - - - 0;
#X msg 17 402 0;
#X msg 45 402 0;
#X msg 74 402 0;
#X msg 143 402 0;
#X msg 171 402 0;
#X msg 201 402 0;
#X msg 269 402 0;
#X msg 298 402 0;
#X msg 327 402 0;
#X msg 392 402 0;
#X msg 422 402 0;
#X msg 451 402 0;
#X obj 526 501 *~;
#X obj 650 501 *~;
#X obj 766 500 *~;
#X obj 873 500 *~;
#X obj 544 462 line;
#X obj 668 462 line;
#X obj 784 462 line;
#X obj 891 462 line;
#X msg 605 401 1;
#X msg 714 401 1;
#X msg 828 402 1;
#X msg 940 402 1;
#X obj 585 381 sel 0;
#X obj 702 381 sel 1;
#X obj 816 382 sel 2;
#X obj 927 382 sel 3;
#X obj 668 422 pack;
#X msg 668 442 \$1 \$2;
#X obj 544 422 pack;
#X obj 784 422 pack;
#X obj 891 422 pack;
#X msg 544 442 \$1 \$2;
#X msg 784 442 \$1 \$2;
#X msg 891 442 \$1 \$2;
#X floatatom 733 928 5 0 0 0 - - - 0;
#X floatatom 544 482 5 0 0 0 - - - 0;
#X floatatom 668 482 5 0 0 0 - - - 0;
#X floatatom 784 482 5 0 0 0 - - - 0;
#X floatatom 891 482 5 0 0 0 - - - 0;
#X msg 520 401 0;
#X msg 549 401 0;
#X msg 576 401 0;
#X msg 636 402 0;
#X msg 663 401 0;
#X msg 689 401 0;
#X msg 749 402 0;
#X msg 775 402 0;
#X msg 803 402 0;
#X msg 861 402 0;
#X msg 887 402 0;
#X msg 914 402 0;
#X obj 597 482 adc~ 2;
#X obj 997 501 *~;
#X obj 1121 502 *~;
#X obj 1236 500 *~;
#X obj 1347 501 *~;
#X obj 1015 462 line;
#X obj 1139 461 line;
#X obj 1254 461 line;
#X obj 1365 461 line;
#X msg 1061 401 1;
#X msg 1184 401 1;
#X msg 1298 401 1;
#X msg 1416 401 1;
#X obj 976 381 sel 0;
#X obj 1172 381 sel 1;
#X obj 1219 381 sel 2;
#X obj 1387 381 sel 3;
#X obj 1139 421 pack;
#X msg 1139 441 \$1 \$2;
#X obj 1015 422 pack;
#X obj 1254 421 pack;
#X obj 1365 421 pack;
#X msg 1015 442 \$1 \$2;
#X msg 1254 441 \$1 \$2;
#X msg 1365 441 \$1 \$2;
#X floatatom 1206 932 5 0 0 0 - - - 0;
#X floatatom 1015 482 5 0 0 0 - - - 0;
#X floatatom 1139 481 5 0 0 0 - - - 0;
#X floatatom 1254 481 5 0 0 0 - - - 0;
#X floatatom 1365 481 5 0 0 0 - - - 0;
#X msg 976 401 0;
#X msg 1004 401 0;
#X msg 1033 401 0;
#X msg 1100 401 0;
#X msg 1129 401 0;
#X msg 1156 401 0;
#X msg 1219 401 0;
#X msg 1245 401 0;
#X msg 1272 401 0;
#X msg 1334 401 0;
#X msg 1361 401 0;
#X msg 1387 401 0;
#X obj 1079 481 adc~ 3;
#X obj 1470 500 *~;
#X obj 1583 501 *~;
#X obj 1694 499 *~;
#X obj 1814 499 *~;
#X obj 1488 460 line;
#X obj 1601 461 line;
#X obj 1712 461 line;
#X obj 1832 461 line;
#X msg 1530 400 1;
#X msg 1641 401 1;
#X msg 1759 401 1;
#X msg 1871 401 1;
#X obj 1448 380 sel 0;
#X obj 1616 381 sel 1;
#X obj 1678 381 sel 2;
#X obj 1844 381 sel 3;
#X obj 1601 421 pack;
#X msg 1601 441 \$1 \$2;
#X obj 1488 420 pack;
#X obj 1712 421 pack;
#X obj 1832 421 pack;
#X msg 1488 440 \$1 \$2;
#X msg 1712 441 \$1 \$2;
#X msg 1832 441 \$1 \$2;
#X floatatom 1652 919 5 0 0 0 - - - 0;
#X floatatom 1488 480 5 0 0 0 - - - 0;
#X floatatom 1601 481 5 0 0 0 - - - 0;
#X floatatom 1712 481 5 0 0 0 - - - 0;
#X floatatom 1832 481 5 0 0 0 - - - 0;
#X msg 1448 400 0;
#X msg 1475 400 0;
#X msg 1503 400 0;
#X msg 1563 401 0;
#X msg 1590 401 0;
#X msg 1616 401 0;
#X msg 1678 401 0;
#X msg 1705 401 0;
#X msg 1733 401 0;
#X msg 1793 401 0;
#X msg 1818 401 0;
#X msg 1844 401 0;
#X obj 50 293 bng 15 250 50 0 empty empty empty 17 7 0 10 #fcfcfc #000000
#000000;
#X obj 50 315 random 4;
#X msg 50 362 0;
#X msg 702 361 1;
#X msg 1219 361 2;
#X msg 1844 361 3;
#X msg 234 362 1;
#X msg 816 362 2;
#X msg 1387 361 3;
#X msg 1448 360 0;
#X msg 345 361 2;
#X msg 927 362 3;
#X msg 976 361 0;
#X msg 1616 361 1;
#X msg 465 361 3;
#X msg 585 361 0;
#X msg 1172 361 1;
#X msg 1678 361 2;
#X obj 50 342 sel 0 1 2 3;
#X obj 49 639 dac~ 5;
#X obj 166 639 dac~ 6;
#X obj 283 639 dac~ 7;
#X obj 411 640 dac~ 8;
#X obj 525 642 dac~ 5;
#X obj 649 641 dac~ 6;
#X obj 765 641 dac~ 7;
#X obj 874 641 dac~ 8;
#X obj 996 642 dac~ 5;
#X obj 1120 642 dac~ 6;
#X obj 1235 641 dac~ 7;
#X obj 1348 643 dac~ 8;
#X obj 1469 641 dac~ 5;
#X obj 1582 641 dac~ 6;
#X obj 1693 640 dac~ 7;
#X obj 1815 641 dac~ 8;
#X obj 50 233 tgl 15 0 empty empty empty 17 7 0 10 #fcfcfc #000000
#000000 0 1;
#X obj 50 265 metro 100;
#X obj 171 285 + 50;
#X obj 100 382 / 127;
#X obj 185 381 / 127;
#X obj 302 381 / 127;
#X obj 424 381 / 127;
#X obj 544 381 / 127;
#X obj 662 381 / 127;
#X obj 777 382 / 127;
#X obj 883 382 / 127;
#X obj 1015 381 / 127;
#X obj 1129 381 / 127;
#X obj 1265 381 / 127;
#X obj 1342 381 / 127;
#X obj 1488 380 / 127;
#X obj 1575 381 / 127;
#X obj 1722 381 / 127;
#X obj 1802 381 / 127;
#X obj 171 258 random 500;
#X msg 724 98 listen 8080 224.0.0.1;
#X obj 724 128 netreceive -u -b -f;
#X obj 724 158 oscparse;
#X obj 724 181 print parse-output;
#X floatatom 724 282 5 0 0 0 - - - 0;
#X floatatom 766 282 5 0 0 0 - - - 0;
#X floatatom 809 283 5 0 0 0 - - - 0;
#X floatatom 851 283 5 0 0 0 - - - 0;
#X obj 724 211 route list;
#X floatatom 894 283 5 0 0 0 - - - 0;
#X floatatom 936 283 5 0 0 0 - - - 0;
#X floatatom 979 283 5 0 0 0 - - - 0;
#X floatatom 1022 283 5 0 0 0 - - - 0;
#X floatatom 1064 283 5 0 0 0 - - - 0;
#X floatatom 1106 283 5 0 0 0 - - - 0;
#X floatatom 1149 284 5 0 0 0 - - - 0;
#X floatatom 1192 284 5 0 0 0 - - - 0;
#X floatatom 1234 284 5 0 0 0 - - - 0;
#X floatatom 1277 284 5 0 0 0 - - - 0;
#X floatatom 1319 285 5 0 0 0 - - - 0;
#X floatatom 1362 285 5 0 0 0 - - - 0;
#X floatatom 1404 285 5 0 0 0 - - - 0;
#X floatatom 1447 285 5 0 0 0 - - - 0;
#X floatatom 1489 286 5 0 0 0 - - - 0;
#X floatatom 1532 286 5 0 0 0 - - - 0;
#X obj 724 240 route ctl0 ctl1 ctl2 ctl3 ctl4 ctl5 ctl6 ctl7 ctl8 ctl9
ctl10 ct11 ctl12 ctl13 ctl14 ctl15 ct20 ctl21 ctl22 ctl23, f 122;
#X obj 49 619 *~;
#X obj 223 535 / 127;
#X obj 223 575 line;
#X msg 223 555 \$1 100;
#X obj 166 619 *~;
#X obj 284 619 *~;
#X obj 411 620 *~;
#X obj 526 622 *~;
#X obj 713 526 / 127;
#X obj 713 566 line;
#X msg 713 546 \$1 100;
#X obj 650 621 *~;
#X obj 765 621 *~;
#X obj 875 621 *~;
#X obj 996 622 *~;
#X obj 1179 522 / 127;
#X obj 1179 562 line;
#X msg 1179 542 \$1 100;
#X obj 1120 622 *~;
#X obj 1235 621 *~;
#X obj 1349 623 *~;
#X obj 1470 621 *~;
#X obj 1653 524 / 127;
#X obj 1653 564 line;
#X msg 1653 544 \$1 100;
#X obj 1582 621 *~;
#X obj 1694 620 *~;
#X obj 1815 621 *~;
#X floatatom 943 832 5 0 0 0 - - - 0;
#X obj 1684 177 adc~ 4;
#X connect 0 0 248 0;
#X connect 1 0 252 0;
#X connect 2 0 253 0;
#X connect 3 0 254 0;
#X connect 4 0 26 0;
#X connect 5 0 27 0;
#X connect 6 0 28 0;
#X connect 7 0 29 0;
#X connect 8 0 0 0;
#X connect 8 0 1 0;
#X connect 8 0 2 0;
#X connect 8 0 3 0;
#X connect 9 0 19 0;
#X connect 10 0 17 0;
#X connect 11 0 20 0;
#X connect 12 0 21 0;
#X connect 13 0 30 0;
#X connect 13 0 34 0;
#X connect 13 0 38 0;
#X connect 13 0 12 0;
#X connect 14 0 31 0;
#X connect 14 0 35 0;
#X connect 14 0 11 0;
#X connect 14 0 39 0;
#X connect 15 0 32 0;
#X connect 15 0 10 0;
#X connect 15 0 36 0;
#X connect 15 0 40 0;
#X connect 16 0 9 0;
#X connect 16 0 33 0;
#X connect 16 0 37 0;
#X connect 16 0 41 0;
#X connect 17 0 18 0;
#X connect 18 0 5 0;
#X connect 19 0 22 0;
#X connect 20 0 23 0;
#X connect 21 0 24 0;
#X connect 22 0 4 0;
#X connect 23 0 6 0;
#X connect 24 0 7 0;
#X connect 25 0 21 1;
#X connect 25 0 20 1;
#X connect 25 0 17 1;
#X connect 25 0 19 1;
#X connect 26 0 0 1;
#X connect 27 0 1 1;
#X connect 28 0 2 1;
#X connect 29 0 3 1;
#X connect 30 0 19 0;
#X connect 31 0 19 0;
#X connect 32 0 19 0;
#X connect 33 0 17 0;
#X connect 34 0 17 0;
#X connect 35 0 17 0;
#X connect 36 0 20 0;
#X connect 37 0 20 0;
#X connect 38 0 20 0;
#X connect 39 0 21 0;
#X connect 40 0 21 0;
#X connect 41 0 21 0;
#X connect 42 0 255 0;
#X connect 43 0 259 0;
#X connect 44 0 260 0;
#X connect 45 0 261 0;
#X connect 46 0 67 0;
#X connect 47 0 68 0;
#X connect 48 0 69 0;
#X connect 49 0 70 0;
#X connect 50 0 60 0;
#X connect 51 0 58 0;
#X connect 52 0 61 0;
#X connect 53 0 62 0;
#X connect 54 0 71 0;
#X connect 54 0 75 0;
#X connect 54 0 79 0;
#X connect 54 0 53 0;
#X connect 55 0 72 0;
#X connect 55 0 76 0;
#X connect 55 0 52 0;
#X connect 55 0 80 0;
#X connect 56 0 73 0;
#X connect 56 0 51 0;
#X connect 56 0 77 0;
#X connect 56 0 81 0;
#X connect 57 0 50 0;
#X connect 57 0 74 0;
#X connect 57 0 78 0;
#X connect 57 0 82 0;
#X connect 58 0 59 0;
#X connect 59 0 47 0;
#X connect 60 0 63 0;
#X connect 61 0 64 0;
#X connect 62 0 65 0;
#X connect 63 0 46 0;
#X connect 64 0 48 0;
#X connect 65 0 49 0;
#X connect 66 0 62 1;
#X connect 66 0 61 1;
#X connect 66 0 58 1;
#X connect 66 0 60 1;
#X connect 67 0 42 1;
#X connect 68 0 43 1;
#X connect 69 0 44 1;
#X connect 70 0 45 1;
#X connect 71 0 60 0;
#X connect 72 0 60 0;
#X connect 73 0 60 0;
#X connect 74 0 58 0;
#X connect 75 0 58 0;
#X connect 76 0 58 0;
#X connect 77 0 61 0;
#X connect 78 0 61 0;
#X connect 79 0 61 0;
#X connect 80 0 62 0;
#X connect 81 0 62 0;
#X connect 82 0 62 0;
#X connect 83 0 42 0;
#X connect 83 0 43 0;
#X connect 83 0 44 0;
#X connect 83 0 45 0;
#X connect 84 0 262 0;
#X connect 85 0 266 0;
#X connect 86 0 267 0;
#X connect 87 0 268 0;
#X connect 88 0 109 0;
#X connect 89 0 110 0;
#X connect 90 0 111 0;
#X connect 91 0 112 0;
#X connect 92 0 102 0;
#X connect 93 0 100 0;
#X connect 94 0 103 0;
#X connect 95 0 104 0;
#X connect 96 0 113 0;
#X connect 96 0 117 0;
#X connect 96 0 121 0;
#X connect 96 0 95 0;
#X connect 97 0 114 0;
#X connect 97 0 118 0;
#X connect 97 0 94 0;
#X connect 97 0 122 0;
#X connect 98 0 115 0;
#X connect 98 0 93 0;
#X connect 98 0 119 0;
#X connect 98 0 123 0;
#X connect 99 0 92 0;
#X connect 99 0 116 0;
#X connect 99 0 120 0;
#X connect 99 0 124 0;
#X connect 100 0 101 0;
#X connect 101 0 89 0;
#X connect 102 0 105 0;
#X connect 103 0 106 0;
#X connect 104 0 107 0;
#X connect 105 0 88 0;
#X connect 106 0 90 0;
#X connect 107 0 91 0;
#X connect 108 0 104 1;
#X connect 108 0 103 1;
#X connect 108 0 100 1;
#X connect 108 0 102 1;
#X connect 109 0 84 1;
#X connect 110 0 85 1;
#X connect 111 0 86 1;
#X connect 112 0 87 1;
#X connect 113 0 102 0;
#X connect 114 0 102 0;
#X connect 115 0 102 0;
#X connect 116 0 100 0;
#X connect 117 0 100 0;
#X connect 118 0 100 0;
#X connect 119 0 103 0;
#X connect 120 0 103 0;
#X connect 121 0 103 0;
#X connect 122 0 104 0;
#X connect 123 0 104 0;
#X connect 124 0 104 0;
#X connect 125 0 84 0;
#X connect 125 0 85 0;
#X connect 125 0 86 0;
#X connect 125 0 87 0;
#X connect 126 0 269 0;
#X connect 127 0 273 0;
#X connect 128 0 274 0;
#X connect 129 0 275 0;
#X connect 130 0 151 0;
#X connect 131 0 152 0;
#X connect 132 0 153 0;
#X connect 133 0 154 0;
#X connect 134 0 144 0;
#X connect 135 0 142 0;
#X connect 136 0 145 0;
#X connect 137 0 146 0;
#X connect 138 0 155 0;
#X connect 138 0 159 0;
#X connect 138 0 163 0;
#X connect 138 0 137 0;
#X connect 139 0 156 0;
#X connect 139 0 160 0;
#X connect 139 0 136 0;
#X connect 139 0 164 0;
#X connect 140 0 157 0;
#X connect 140 0 135 0;
#X connect 140 0 161 0;
#X connect 140 0 165 0;
#X connect 141 0 134 0;
#X connect 141 0 158 0;
#X connect 141 0 162 0;
#X connect 141 0 166 0;
#X connect 142 0 143 0;
#X connect 143 0 131 0;
#X connect 144 0 147 0;
#X connect 145 0 148 0;
#X connect 146 0 149 0;
#X connect 147 0 130 0;
#X connect 148 0 132 0;
#X connect 149 0 133 0;
#X connect 150 0 146 1;
#X connect 150 0 145 1;
#X connect 150 0 142 1;
#X connect 150 0 144 1;
#X connect 151 0 126 1;
#X connect 152 0 127 1;
#X connect 153 0 128 1;
#X connect 154 0 129 1;
#X connect 155 0 144 0;
#X connect 156 0 144 0;
#X connect 157 0 144 0;
#X connect 158 0 142 0;
#X connect 159 0 142 0;
#X connect 160 0 142 0;
#X connect 161 0 145 0;
#X connect 162 0 145 0;
#X connect 163 0 145 0;
#X connect 164 0 146 0;
#X connect 165 0 146 0;
#X connect 166 0 146 0;
#X connect 167 0 168 0;
#X connect 168 0 185 0;
#X connect 169 0 13 0;
#X connect 170 0 55 0;
#X connect 171 0 98 0;
#X connect 172 0 141 0;
#X connect 173 0 14 0;
#X connect 174 0 56 0;
#X connect 175 0 99 0;
#X connect 176 0 138 0;
#X connect 177 0 15 0;
#X connect 178 0 57 0;
#X connect 179 0 96 0;
#X connect 180 0 139 0;
#X connect 181 0 16 0;
#X connect 182 0 54 0;
#X connect 183 0 97 0;
#X connect 184 0 140 0;
#X connect 185 0 169 0;
#X connect 185 0 170 0;
#X connect 185 0 171 0;
#X connect 185 0 172 0;
#X connect 185 1 173 0;
#X connect 185 1 174 0;
#X connect 185 1 175 0;
#X connect 185 1 176 0;
#X connect 185 2 177 0;
#X connect 185 2 178 0;
#X connect 185 2 179 0;
#X connect 185 2 180 0;
#X connect 185 3 181 0;
#X connect 185 3 182 0;
#X connect 185 3 183 0;
#X connect 185 3 184 0;
#X connect 202 0 203 0;
#X connect 203 0 167 0;
#X connect 203 0 221 0;
#X connect 204 0 203 1;
#X connect 205 0 19 0;
#X connect 206 0 17 0;
#X connect 207 0 20 0;
#X connect 208 0 21 0;
#X connect 209 0 60 0;
#X connect 210 0 58 0;
#X connect 211 0 61 0;
#X connect 212 0 62 0;
#X connect 213 0 102 0;
#X connect 214 0 100 0;
#X connect 215 0 103 0;
#X connect 216 0 104 0;
#X connect 217 0 144 0;
#X connect 218 0 142 0;
#X connect 219 0 145 0;
#X connect 220 0 146 0;
#X connect 221 0 204 0;
#X connect 222 0 223 0;
#X connect 223 0 224 0;
#X connect 224 0 225 0;
#X connect 224 0 230 0;
#X connect 226 0 205 0;
#X connect 227 0 206 0;
#X connect 228 0 207 0;
#X connect 229 0 208 0;
#X connect 230 0 247 0;
#X connect 231 0 209 0;
#X connect 232 0 210 0;
#X connect 233 0 211 0;
#X connect 234 0 212 0;
#X connect 235 0 213 0;
#X connect 236 0 214 0;
#X connect 237 0 215 0;
#X connect 238 0 216 0;
#X connect 239 0 217 0;
#X connect 240 0 218 0;
#X connect 241 0 219 0;
#X connect 242 0 220 0;
#X connect 243 0 249 0;
#X connect 244 0 256 0;
#X connect 245 0 263 0;
#X connect 246 0 270 0;
#X connect 247 0 226 0;
#X connect 247 1 227 0;
#X connect 247 2 228 0;
#X connect 247 3 229 0;
#X connect 247 4 231 0;
#X connect 247 5 232 0;
#X connect 247 6 233 0;
#X connect 247 7 234 0;
#X connect 247 8 235 0;
#X connect 247 9 236 0;
#X connect 247 10 237 0;
#X connect 247 11 238 0;
#X connect 247 12 239 0;
#X connect 247 13 240 0;
#X connect 247 14 241 0;
#X connect 247 15 242 0;
#X connect 247 16 243 0;
#X connect 247 17 244 0;
#X connect 247 18 245 0;
#X connect 247 19 246 0;
#X connect 248 0 186 0;
#X connect 249 0 251 0;
#X connect 250 0 248 1;
#X connect 250 0 252 1;
#X connect 250 0 253 1;
#X connect 250 0 254 1;
#X connect 251 0 250 0;
#X connect 252 0 187 0;
#X connect 253 0 188 0;
#X connect 254 0 189 0;
#X connect 255 0 190 0;
#X connect 256 0 258 0;
#X connect 257 0 255 1;
#X connect 257 0 259 1;
#X connect 257 0 260 1;
#X connect 257 0 261 1;
#X connect 258 0 257 0;
#X connect 259 0 191 0;
#X connect 260 0 192 0;
#X connect 261 0 193 0;
#X connect 262 0 194 0;
#X connect 263 0 265 0;
#X connect 264 0 262 1;
#X connect 264 0 266 1;
#X connect 264 0 267 1;
#X connect 264 0 268 1;
#X connect 265 0 264 0;
#X connect 266 0 195 0;
#X connect 267 0 196 0;
#X connect 268 0 197 0;
#X connect 269 0 198 0;
#X connect 270 0 272 0;
#X connect 271 0 269 1;
#X connect 271 0 273 1;
#X connect 271 0 274 1;
#X connect 271 0 275 1;
#X connect 272 0 271 0;
#X connect 273 0 199 0;
#X connect 274 0 200 0;
#X connect 275 0 201 0;
#X connect 276 0 25 0;
#X connect 276 0 66 0;
#X connect 276 0 108 0;
#X connect 276 0 150 0;
#X connect 277 0 129 0;
#X connect 277 0 128 0;
#X connect 277 0 127 0;
#X connect 277 0 126 0;
